<svg width="24" height="24" viewBox="0 0 24 24" fill="none" xmlns="http://www.w3.org/2000/svg">
<path d="M20.5201 15.21L18.7201 13.4V8.94C18.744 7.28382 18.1679 5.67491 17.0982 4.41034C16.0285 3.14576 14.5373 2.31094 12.9001 2.06C11.9499 1.93487 10.9839 2.01382 10.0667 2.29158C9.14942 2.56934 8.30194 3.03952 7.5808 3.67076C6.85965 4.302 6.28142 5.07978 5.88468 5.9522C5.48794 6.82461 5.28182 7.77161 5.28007 8.73V13.4L3.48007 15.21C3.25398 15.4399 3.10066 15.7313 3.03927 16.0478C2.97789 16.3643 3.01117 16.6919 3.13495 16.9896C3.25873 17.2874 3.46752 17.542 3.73522 17.7217C4.00292 17.9014 4.31766 17.9982 4.64007 18H8.00007V18.34C8.04678 19.3552 8.49403 20.3105 9.2438 20.9965C9.99357 21.6826 10.9847 22.0434 12.0001 22C13.0154 22.0434 14.0066 21.6826 14.7563 20.9965C15.5061 20.3105 15.9534 19.3552 16.0001 18.34V18H19.3601C19.6825 17.9982 19.9972 17.9014 20.2649 17.7217C20.5326 17.542 20.7414 17.2874 20.8652 16.9896C20.989 16.6919 21.0223 16.3643 20.9609 16.0478C20.8995 15.7313 20.7462 15.4399 20.5201 15.21ZM14.0001 18.34C13.9446 18.821 13.7057 19.2621 13.3331 19.5713C12.9606 19.8805 12.4831 20.0341 12.0001 20C11.5171 20.0341 11.0396 19.8805 10.667 19.5713C10.2944 19.2621 10.0555 18.821 10.0001 18.34V18H14.0001V18.34ZM5.51007 16L6.69007 14.82C6.87724 14.6339 7.02574 14.4127 7.127 14.169C7.22826 13.9253 7.28028 13.6639 7.28007 13.4V8.73C7.28062 8.0554 7.42546 7.38872 7.70487 6.77471C7.98428 6.1607 8.3918 5.61355 8.90007 5.17C9.40149 4.71568 9.99565 4.37575 10.6414 4.17373C11.2872 3.97172 11.9691 3.91244 12.6401 4C13.7966 4.18778 14.8463 4.78701 15.596 5.68738C16.3457 6.58775 16.7449 7.72864 16.7201 8.9V13.4C16.7186 13.6632 16.769 13.9241 16.8685 14.1678C16.9681 14.4115 17.1147 14.6331 17.3001 14.82L18.4901 16H5.51007Z" fill="#6286ED"/>
</svg>
