<svg width="24" height="24" viewBox="0 0 24 24" fill="none" xmlns="http://www.w3.org/2000/svg">
<g clip-path="url(#clip0)">
<path d="M11 2C9.02219 2 7.08879 2.58649 5.4443 3.6853C3.79981 4.78412 2.51809 6.3459 1.76121 8.17317C1.00433 10.0004 0.806299 12.0111 1.19215 13.9509C1.578 15.8907 2.53041 17.6725 3.92894 19.0711C5.32746 20.4696 7.10929 21.422 9.0491 21.8079C10.9889 22.1937 12.9996 21.9957 14.8268 21.2388C16.6541 20.4819 18.2159 19.2002 19.3147 17.5557C20.4135 15.9112 21 13.9778 21 12C21 10.6868 20.7413 9.38642 20.2388 8.17317C19.7363 6.95991 18.9997 5.85752 18.0711 4.92893C17.1425 4.00035 16.0401 3.26375 14.8268 2.7612C13.6136 2.25866 12.3132 2 11 2ZM11 20C9.41775 20 7.87104 19.5308 6.55544 18.6518C5.23985 17.7727 4.21447 16.5233 3.60897 15.0615C3.00347 13.5997 2.84504 11.9911 3.15372 10.4393C3.4624 8.88743 4.22433 7.46197 5.34315 6.34315C6.46197 5.22433 7.88743 4.4624 9.43928 4.15372C10.9911 3.84504 12.5997 4.00346 14.0615 4.60896C15.5233 5.21447 16.7727 6.23984 17.6518 7.55544C18.5308 8.87103 19 10.4177 19 12C19 14.1217 18.1572 16.1566 16.6569 17.6569C15.1566 19.1571 13.1217 20 11 20Z" fill="#6286ED"/>
<path d="M13.7099 9.29C13.617 9.19627 13.5064 9.12188 13.3845 9.07111C13.2627 9.02034 13.132 8.9942 12.9999 8.9942C12.8679 8.9942 12.7372 9.02034 12.6154 9.07111C12.4935 9.12188 12.3829 9.19627 12.2899 9.29L10.9999 10.59L9.70994 9.29C9.52164 9.1017 9.26624 8.99591 8.99994 8.99591C8.73364 8.99591 8.47824 9.1017 8.28994 9.29C8.10164 9.4783 7.99585 9.7337 7.99585 10C7.99585 10.2663 8.10164 10.5217 8.28994 10.71L9.58994 12L8.28994 13.29C8.19621 13.383 8.12182 13.4936 8.07105 13.6154C8.02028 13.7373 7.99414 13.868 7.99414 14C7.99414 14.132 8.02028 14.2627 8.07105 14.3846C8.12182 14.5064 8.19621 14.617 8.28994 14.71C8.3829 14.8037 8.4935 14.8781 8.61536 14.9289C8.73722 14.9797 8.86793 15.0058 8.99994 15.0058C9.13195 15.0058 9.26266 14.9797 9.38452 14.9289C9.50638 14.8781 9.61698 14.8037 9.70994 14.71L10.9999 13.41L12.2899 14.71C12.3829 14.8037 12.4935 14.8781 12.6154 14.9289C12.7372 14.9797 12.8679 15.0058 12.9999 15.0058C13.132 15.0058 13.2627 14.9797 13.3845 14.9289C13.5064 14.8781 13.617 14.8037 13.7099 14.71C13.8037 14.617 13.8781 14.5064 13.9288 14.3846C13.9796 14.2627 14.0057 14.132 14.0057 14C14.0057 13.868 13.9796 13.7373 13.9288 13.6154C13.8781 13.4936 13.8037 13.383 13.7099 13.29L12.4099 12L13.7099 10.71C13.8037 10.617 13.8781 10.5064 13.9288 10.3846C13.9796 10.2627 14.0057 10.132 14.0057 10C14.0057 9.86799 13.9796 9.73728 13.9288 9.61542C13.8781 9.49356 13.8037 9.38296 13.7099 9.29Z" fill="#6286ED"/>
</g>
<defs>
<clipPath id="clip0">
<rect width="24" height="24" fill="white"/>
</clipPath>
</defs>
</svg>
