<svg width="20" height="12" viewBox="0 0 20 12" fill="none" xmlns="http://www.w3.org/2000/svg">
<path d="M0.387784 12H4.84801C7.55256 12 8.77415 10.6534 8.77415 8.86932C8.77415 7.06818 7.51278 6.05114 6.35938 5.98864V5.875C7.42756 5.60227 8.3196 4.875 8.3196 3.42045C8.3196 1.69886 7.12642 0.363636 4.64915 0.363636H0.387784V12ZM2.14347 10.4943V6.76705H4.74006C6.14915 6.76705 7.02983 7.67614 7.02983 8.78409C7.02983 9.76136 6.36506 10.4943 4.67756 10.4943H2.14347ZM2.14347 5.39773V1.85795H4.54119C5.93324 1.85795 6.59801 2.59091 6.59801 3.55682C6.59801 4.68182 5.67756 5.39773 4.49574 5.39773H2.14347ZM10.8565 12H12.6122V7.59659H14.9986C15.0384 7.59659 15.0724 7.59659 15.1122 7.59659L17.4759 12H19.4759L16.8963 7.28977C18.3224 6.76136 19.0327 5.57386 19.0327 4.01136C19.0327 1.86932 17.7031 0.363636 15.0043 0.363636H10.8565V12ZM12.6122 6.08523V1.86932H14.8168C16.5497 1.86932 17.2656 2.69318 17.2656 4.01136C17.2656 5.32386 16.5497 6.08523 14.8395 6.08523H12.6122Z" fill="white"/>
</svg>
