<svg width="11" height="7" viewBox="0 0 11 7" fill="none" xmlns="http://www.w3.org/2000/svg">
<path d="M-0.000173569 1.5C-0.000934601 1.36839 0.0242901 1.23793 0.0740547 1.11609C0.123819 0.994256 0.197146 0.88344 0.289827 0.79C0.382791 0.696272 0.49339 0.621877 0.61525 0.571109C0.737109 0.52034 0.867815 0.494202 0.999826 0.494202C1.13184 0.494202 1.26254 0.52034 1.3844 0.571109C1.50626 0.621877 1.61686 0.696272 1.70983 0.79L4.99983 4.1L8.30983 0.92C8.49719 0.733749 8.75064 0.629208 9.01483 0.629208C9.27901 0.629208 9.53246 0.733749 9.71983 0.92C9.81356 1.01296 9.88795 1.12356 9.93872 1.24542C9.98949 1.36728 10.0156 1.49799 10.0156 1.63C10.0156 1.76201 9.98949 1.89272 9.93872 2.01458C9.88795 2.13644 9.81356 2.24704 9.71983 2.34L5.71983 6.2C5.5329 6.38323 5.28158 6.48586 5.01983 6.48586C4.75807 6.48586 4.50676 6.38323 4.31983 6.2L0.319826 2.2C0.222894 2.11024 0.144708 2.00217 0.0897827 1.88202C0.0348577 1.76187 0.00428391 1.63203 -0.000173569 1.5Z" fill="#6286ED"/>
</svg>
