<svg width="30" height="12" viewBox="0 0 30 12" fill="none" xmlns="http://www.w3.org/2000/svg">
<path d="M0.169389 11H1.70561V6.56037H6.0309V5.2429H1.70561V2.14062H6.48331V0.818182H0.169389V11ZM8.2532 11H9.7397V3.36364H8.2532V11ZM9.00391 2.18537C9.51598 2.18537 9.94354 1.78764 9.94354 1.30043C9.94354 0.81321 9.51598 0.410511 9.00391 0.410511C8.48686 0.410511 8.06428 0.81321 8.06428 1.30043C8.06428 1.78764 8.48686 2.18537 9.00391 2.18537ZM13.226 0.818182H11.7395V11H13.226V0.818182ZM18.517 11.1541C20.1825 11.1541 21.3608 10.3338 21.6989 9.09091L20.2919 8.83736C20.0234 9.55824 19.3771 9.92614 18.532 9.92614C17.2592 9.92614 16.4041 9.10085 16.3643 7.62926H21.7933V7.10227C21.7933 4.34304 20.1428 3.2642 18.4126 3.2642C16.2848 3.2642 14.8828 4.88494 14.8828 7.23153C14.8828 9.60298 16.2649 11.1541 18.517 11.1541ZM16.3693 6.51562C16.429 5.43182 17.2145 4.49219 18.4226 4.49219C19.576 4.49219 20.3317 5.3473 20.3366 6.51562H16.3693ZM29.165 5.22798C28.8567 4.03977 27.927 3.2642 26.2765 3.2642C24.5513 3.2642 23.3283 4.17401 23.3283 5.52628C23.3283 6.61009 23.9846 7.33097 25.4164 7.64915L26.709 7.93253C27.4448 8.09659 27.7878 8.42472 27.7878 8.90199C27.7878 9.49361 27.1564 9.95597 26.182 9.95597C25.2921 9.95597 24.7203 9.57315 24.5414 8.82244L23.1046 9.04119C23.3532 10.3935 24.4767 11.1541 26.1919 11.1541C28.0364 11.1541 29.3141 10.1747 29.3141 8.79261C29.3141 7.71378 28.628 7.04759 27.226 6.72443L26.013 6.44602C25.1728 6.24716 24.8098 5.96378 24.8148 5.44673C24.8098 4.86009 25.4462 4.44247 26.2914 4.44247C27.2161 4.44247 27.6436 4.95455 27.8176 5.46662L29.165 5.22798Z" fill="#6286ED"/>
</svg>
