<svg width="24" height="24" viewBox="0 0 24 24" fill="none" xmlns="http://www.w3.org/2000/svg">
<path d="M3.86666 16.4737L2 16.52M3.86666 16.4737C3.86666 17.8689 5.06057 19 6.53333 19C8.00609 19 9.2 17.8689 9.2 16.4737C9.2 15.0784 8.00609 13.9474 6.53333 13.9474C5.06057 13.9474 3.86666 15.0784 3.86666 16.4737ZM9.96553 16.5201H22M12.89 7.68551L2 7.68551M22 7.68551H19.2M18.5333 7.52632C18.5333 8.92156 17.3394 10.0526 15.8667 10.0526C14.3939 10.0526 13.2 8.92156 13.2 7.52632C13.2 6.13107 14.3939 5 15.8667 5C17.3394 5 18.5333 6.13107 18.5333 7.52632Z" stroke="#8F92A1" stroke-width="2" stroke-linecap="round"/>
</svg>
