<svg width="140" height="40" viewBox="0 0 140 40" fill="none" xmlns="http://www.w3.org/2000/svg">
<path d="M53.9175 0.120755H52.3189V8.9531H53.9175V0.120755Z" fill="#333333"/>
<path d="M62.9006 0.120755H61.3106V6.14124H61.2331L57.0792 0.120755H55.6486V8.9531H57.2473V2.93693H57.3205L61.4787 8.9531H62.9006V0.120755Z" fill="#333333"/>
<path d="M69.4384 2.54879H70.9767C70.9466 1.0566 69.6754 0 67.7967 0C65.9438 0 64.552 1.04367 64.5563 2.60485C64.5563 3.87278 65.4569 4.60162 66.909 4.97682L67.913 5.23558C68.8653 5.47709 69.4944 5.77466 69.4987 6.46038C69.4944 7.21509 68.7791 7.71968 67.7364 7.71968C66.7367 7.71968 65.9611 7.27116 65.8964 6.34394H64.3237C64.3883 8.09919 65.6939 9.08679 67.7493 9.08679C69.865 9.08679 71.0931 8.03019 71.0974 6.47332C71.0931 4.94232 69.8305 4.24367 68.5034 3.92884L67.676 3.72183C66.9521 3.54933 66.1679 3.24313 66.1765 2.50566C66.1808 1.84151 66.7755 1.35418 67.7752 1.35418C68.7274 1.35418 69.3565 1.79838 69.4384 2.54879Z" fill="#333333"/>
<path d="M78.0898 0.120755V5.92129C78.0898 7.0124 77.215 7.64636 76.1033 7.64636C74.9959 7.64636 74.1212 7.0124 74.1212 5.92129V0.120755H72.5226V5.96011C72.5226 7.96119 74.0566 9.08679 76.1033 9.08679C78.1415 9.08679 79.6841 7.96119 79.6841 5.96011V0.120755H78.0898Z" fill="#333333"/>
<path d="M81.4217 8.9531H83.0203V5.7186H84.6491L86.3813 8.9531H88.1652L86.2563 5.45121C87.2948 5.03288 87.842 4.14447 87.842 2.94555C87.842 1.2593 86.7562 0.120755 84.731 0.120755H81.4217V8.9531ZM83.0203 4.3903V1.45768H84.4853C85.6789 1.45768 86.2132 2.00539 86.2132 2.94555C86.2132 3.88571 85.6789 4.3903 84.494 4.3903H83.0203Z" fill="#333333"/>
<path d="M90.4468 8.9531L91.175 6.7752H94.4929L95.2255 8.9531H96.9318L93.8207 0.120755H91.8472L88.7405 8.9531H90.4468ZM91.6059 5.49003L92.7995 1.93208H92.8685L94.062 5.49003H91.6059Z" fill="#333333"/>
<path d="M105.346 0.120755H103.756V6.14124H103.679L99.5247 0.120755H98.0942V8.9531H99.6928V2.93693H99.766L103.924 8.9531H105.346V0.120755Z" fill="#333333"/>
<path d="M114.642 3.10081C114.37 1.13854 112.862 0 110.906 0C108.601 0 106.864 1.68194 106.864 4.53693C106.864 7.3876 108.579 9.07385 110.906 9.07385C113.004 9.07385 114.396 7.71536 114.642 6.02911L113.03 6.02049C112.828 7.05553 111.983 7.63774 110.927 7.63774C109.497 7.63774 108.471 6.56388 108.471 4.53693C108.471 2.54447 109.488 1.43612 110.932 1.43612C112.005 1.43612 112.845 2.04421 113.03 3.10081H114.642Z" fill="#333333"/>
<path d="M116.106 8.9531H121.88V7.61186H117.704V5.20108H121.548V3.85984H117.704V1.462H121.845V0.120755H116.106V8.9531Z" fill="#333333"/>
<path d="M52.3189 15.5774V24.4097H53.8529V18.3288H53.9347L56.3736 24.3838H57.5198L59.9587 18.3418H60.0405V24.4097H61.5745V15.5774H59.6183L56.9984 21.9774H56.895L54.2751 15.5774H52.3189Z" fill="#333333"/>
<path d="M64.4486 24.4097L65.1768 22.2318H68.4947L69.2273 24.4097H70.9336L67.8225 15.5774H65.849L62.7423 24.4097H64.4486ZM65.6077 20.9466L66.8013 17.3887H66.8703L68.0639 20.9466H65.6077Z" fill="#333333"/>
<path d="M79.348 15.5774H77.758V21.5978H77.6804L73.5266 15.5774H72.096V24.4097H73.6946V18.3935H73.7679L77.926 24.4097H79.348V15.5774Z" fill="#333333"/>
<path d="M82.2231 24.4097L82.9514 22.2318H86.2693L87.0018 24.4097H88.7081L85.5971 15.5774H83.6236L80.5168 24.4097H82.2231ZM83.3822 20.9466L84.5758 17.3887H84.6448L85.8384 20.9466H83.3822Z" fill="#333333"/>
<path d="M95.3677 18.3978H96.9964C96.725 16.6642 95.2255 15.4566 93.2735 15.4566C90.9639 15.4566 89.2317 17.1558 89.2317 20.0022C89.2317 22.7968 90.8863 24.5305 93.3209 24.5305C95.5055 24.5305 97.0697 23.1245 97.0697 20.8474V19.7865H93.4889V21.0372H95.5228C95.4969 22.2965 94.6567 23.0943 93.3295 23.0943C91.8515 23.0943 90.8389 21.986 90.8389 19.9849C90.8389 17.9968 91.8688 16.8927 93.295 16.8927C94.3594 16.8927 95.0833 17.462 95.3677 18.3978Z" fill="#333333"/>
<path d="M98.6155 24.4097H104.39V23.0685H100.214V20.6577H104.058V19.3164H100.214V16.9186H104.355V15.5774H98.6155V24.4097Z" fill="#333333"/>
<path d="M105.986 15.5774V24.4097H107.52V18.3288H107.602L110.041 24.3838H111.187L113.626 18.3418H113.708V24.4097H115.242V15.5774H113.285L110.666 21.9774H110.562L107.942 15.5774H105.986Z" fill="#333333"/>
<path d="M116.983 24.4097H122.757V23.0685H118.581V20.6577H122.425V19.3164H118.581V16.9186H122.722V15.5774H116.983V24.4097Z" fill="#333333"/>
<path d="M131.605 15.5774H130.015V21.5978H129.937L125.784 15.5774H124.353V24.4097H125.952V18.3935H126.025L130.183 24.4097H131.605V15.5774Z" fill="#333333"/>
<path d="M132.959 16.9186H135.687V24.4097H137.272V16.9186H140V15.5774H132.959V16.9186Z" fill="#333333"/>
<path d="M57.1148 33.462H58.6531C58.6229 31.9698 57.3517 30.9132 55.473 30.9132C53.6202 30.9132 52.2284 31.9569 52.2327 33.5181C52.2327 34.786 53.1333 35.5148 54.5854 35.89L55.5894 36.1488C56.5417 36.3903 57.1708 36.6879 57.1751 37.3736C57.1708 38.1283 56.4555 38.6329 55.4127 38.6329C54.413 38.6329 53.6374 38.1844 53.5728 37.2571H52C52.0646 39.0124 53.3703 40 55.4256 40C57.5413 40 58.7694 38.9434 58.7737 37.3865C58.7694 35.8555 57.5069 35.1569 56.1797 34.842L55.3524 34.635C54.6285 34.4625 53.8442 34.1563 53.8529 33.4189C53.8572 32.7547 54.4518 32.2674 55.4515 32.2674C56.4038 32.2674 57.0329 32.7116 57.1148 33.462Z" fill="#333333"/>
<path d="M59.5956 31.034L62.8058 36.5714V39.8663H64.4001V36.5714L67.6103 31.034H65.8049L63.6461 34.9412H63.5599L61.4011 31.034H59.5956Z" fill="#333333"/>
<path d="M73.5384 33.462H75.0767C75.0465 31.9698 73.7754 30.9132 71.8967 30.9132C70.0438 30.9132 68.652 31.9569 68.6563 33.5181C68.6563 34.786 69.5569 35.5148 71.009 35.89L72.013 36.1488C72.9653 36.3903 73.5944 36.6879 73.5987 37.3736C73.5944 38.1283 72.8791 38.6329 71.8364 38.6329C70.8367 38.6329 70.0611 38.1844 69.9964 37.2571H68.4237C68.4883 39.0124 69.7939 40 71.8493 40C73.965 40 75.193 38.9434 75.1974 37.3865C75.193 35.8555 73.9305 35.1569 72.6034 34.842L71.776 34.635C71.0521 34.4625 70.2679 34.1563 70.2765 33.4189C70.2808 32.7547 70.8755 32.2674 71.8751 32.2674C72.8274 32.2674 73.4565 32.7116 73.5384 33.462Z" fill="#333333"/>
<path d="M76.2347 32.3752H78.9623V39.8663H80.548V32.3752H83.2756V31.034H76.2347V32.3752Z" fill="#333333"/>
<path d="M84.6329 39.8663H90.407V38.5251H86.2316V36.1143H90.0752V34.773H86.2316V32.3752H90.3725V31.034H84.6329V39.8663Z" fill="#333333"/>
<path d="M92.0034 31.034V39.8663H93.5374V33.7854H93.6193L96.0582 39.8404H97.2044L99.6432 33.7984H99.7251V39.8663H101.259V31.034H99.3028L96.683 37.434H96.5796L93.9597 31.034H92.0034Z" fill="#333333"/>
<path fill-rule="evenodd" clip-rule="evenodd" d="M32 8H8V32H32V8ZM0 0V40H40V0H0Z" fill="#6888E6"/>
</svg>
