<svg width="88" height="40" viewBox="0 0 88 40" fill="none" xmlns="http://www.w3.org/2000/svg">
<path d="M1.91749 0.120755H0.318864V8.9531H1.91749V0.120755Z" fill="#333333"/>
<path d="M10.9006 0.120755H9.31061V6.14124H9.23305L5.0792 0.120755H3.64862V8.9531H5.24725V2.93693H5.3205L9.47866 8.9531H10.9006V0.120755Z" fill="#333333"/>
<path d="M17.4384 2.54879H18.9767C18.9466 1.0566 17.6754 0 15.7967 0C13.9438 0 12.552 1.04367 12.5563 2.60485C12.5563 3.87278 13.4569 4.60162 14.909 4.97682L15.913 5.23558C16.8653 5.47709 17.4944 5.77466 17.4987 6.46038C17.4944 7.21509 16.7791 7.71968 15.7364 7.71968C14.7367 7.71968 13.9611 7.27116 13.8964 6.34394H12.3237C12.3883 8.09919 13.6939 9.08679 15.7493 9.08679C17.865 9.08679 19.0931 8.03019 19.0974 6.47332C19.0931 4.94232 17.8305 4.24367 16.5034 3.92884L15.676 3.72183C14.9521 3.54933 14.1679 3.24313 14.1765 2.50566C14.1808 1.84151 14.7755 1.35418 15.7752 1.35418C16.7274 1.35418 17.3565 1.79838 17.4384 2.54879Z" fill="#333333"/>
<path d="M26.0898 0.120755V5.92129C26.0898 7.0124 25.215 7.64636 24.1033 7.64636C22.9959 7.64636 22.1212 7.0124 22.1212 5.92129V0.120755H20.5226V5.96011C20.5226 7.96119 22.0566 9.08679 24.1033 9.08679C26.1415 9.08679 27.6841 7.96119 27.6841 5.96011V0.120755H26.0898Z" fill="#333333"/>
<path d="M29.4217 8.9531H31.0203V5.7186H32.6491L34.3813 8.9531H36.1652L34.2563 5.45121C35.2948 5.03288 35.842 4.14447 35.842 2.94555C35.842 1.2593 34.7562 0.120755 32.731 0.120755H29.4217V8.9531ZM31.0203 4.3903V1.45768H32.4853C33.6789 1.45768 34.2132 2.00539 34.2132 2.94555C34.2132 3.88571 33.6789 4.3903 32.494 4.3903H31.0203Z" fill="#333333"/>
<path d="M38.4468 8.9531L39.175 6.7752H42.4929L43.2255 8.9531H44.9318L41.8207 0.120755H39.8472L36.7405 8.9531H38.4468ZM39.6059 5.49003L40.7995 1.93208H40.8685L42.062 5.49003H39.6059Z" fill="#333333"/>
<path d="M53.3462 0.120755H51.7562V6.14124H51.6786L47.5247 0.120755H46.0942V8.9531H47.6928V2.93693H47.766L51.9242 8.9531H53.3462V0.120755Z" fill="#333333"/>
<path d="M62.6417 3.10081C62.3702 1.13854 60.8621 0 58.9058 0C56.6005 0 54.864 1.68194 54.864 4.53693C54.864 7.3876 56.579 9.07385 58.9058 9.07385C61.0043 9.07385 62.3961 7.71536 62.6417 6.02911L61.0301 6.02049C60.8276 7.05553 59.9831 7.63774 58.9274 7.63774C57.4968 7.63774 56.4712 6.56388 56.4712 4.53693C56.4712 2.54447 57.4882 1.43612 58.9317 1.43612C60.0046 1.43612 60.8449 2.04421 61.0301 3.10081H62.6417Z" fill="#333333"/>
<path d="M64.1057 8.9531H69.8797V7.61186H65.7043V5.20108H69.5479V3.85984H65.7043V1.462H69.8452V0.120755H64.1057V8.9531Z" fill="#333333"/>
<path d="M0.318864 15.5774V24.4097H1.85286V18.3288H1.93473L4.37361 24.3838H5.51979L7.95867 18.3418H8.04054V24.4097H9.57454V15.5774H7.61826L4.99841 21.9774H4.89499L2.27514 15.5774H0.318864Z" fill="#333333"/>
<path d="M12.4486 24.4097L13.1768 22.2318H16.4947L17.2273 24.4097H18.9336L15.8225 15.5774H13.849L10.7423 24.4097H12.4486ZM13.6077 20.9466L14.8013 17.3887H14.8703L16.0639 20.9466H13.6077Z" fill="#333333"/>
<path d="M27.348 15.5774H25.758V21.5978H25.6804L21.5266 15.5774H20.096V24.4097H21.6946V18.3935H21.7679L25.926 24.4097H27.348V15.5774Z" fill="#333333"/>
<path d="M30.2231 24.4097L30.9514 22.2318H34.2693L35.0018 24.4097H36.7081L33.5971 15.5774H31.6236L28.5168 24.4097H30.2231ZM31.3822 20.9466L32.5758 17.3887H32.6448L33.8384 20.9466H31.3822Z" fill="#333333"/>
<path d="M43.3677 18.3978H44.9964C44.725 16.6642 43.2255 15.4566 41.2735 15.4566C38.9639 15.4566 37.2317 17.1558 37.2317 20.0022C37.2317 22.7968 38.8863 24.5305 41.3209 24.5305C43.5055 24.5305 45.0697 23.1245 45.0697 20.8474V19.7865H41.4889V21.0372H43.5228C43.4969 22.2965 42.6567 23.0943 41.3295 23.0943C39.8515 23.0943 38.8389 21.986 38.8389 19.9849C38.8389 17.9968 39.8688 16.8927 41.295 16.8927C42.3594 16.8927 43.0833 17.462 43.3677 18.3978Z" fill="#333333"/>
<path d="M46.6155 24.4097H52.3896V23.0685H48.2142V20.6577H52.0578V19.3164H48.2142V16.9186H52.3551V15.5774H46.6155V24.4097Z" fill="#333333"/>
<path d="M53.986 15.5774V24.4097H55.52V18.3288H55.6019L58.0408 24.3838H59.187L61.6259 18.3418H61.7077V24.4097H63.2417V15.5774H61.2854L58.6656 21.9774H58.5622L55.9423 15.5774H53.986Z" fill="#333333"/>
<path d="M64.9825 24.4097H70.7566V23.0685H66.5812V20.6577H70.4248V19.3164H66.5812V16.9186H70.7221V15.5774H64.9825V24.4097Z" fill="#333333"/>
<path d="M79.605 15.5774H78.015V21.5978H77.9375L73.7836 15.5774H72.353V24.4097H73.9517V18.3935H74.0249L78.1831 24.4097H79.605V15.5774Z" fill="#333333"/>
<path d="M80.9591 16.9186H83.6867V24.4097H85.2724V16.9186H88V15.5774H80.9591V16.9186Z" fill="#333333"/>
<path d="M5.11475 33.462H6.65305C6.62289 31.9698 5.35174 30.9132 3.47303 30.9132C1.62017 30.9132 0.228376 31.9569 0.232685 33.5181C0.232685 34.786 1.13326 35.5148 2.58538 35.89L3.58937 36.1488C4.54166 36.3903 5.17077 36.6879 5.17508 37.3736C5.17077 38.1283 4.45548 38.6329 3.41271 38.6329C2.41302 38.6329 1.63741 38.1844 1.57278 37.2571H0C0.0646346 39.0124 1.37025 40 3.42563 40C5.54134 40 6.7694 38.9434 6.77371 37.3865C6.7694 35.8555 5.50687 35.1569 4.1797 34.842L3.35238 34.635C2.62847 34.4625 1.84424 34.1563 1.85286 33.4189C1.85717 32.7547 2.45181 32.2674 3.45149 32.2674C4.40377 32.2674 5.03288 32.7116 5.11475 33.462Z" fill="#333333"/>
<path d="M7.59564 31.034L10.8058 36.5714V39.8663H12.4001V36.5714L15.6103 31.034H13.8049L11.6461 34.9412H11.5599L9.4011 31.034H7.59564Z" fill="#333333"/>
<path d="M21.5384 33.462H23.0767C23.0465 31.9698 21.7754 30.9132 19.8967 30.9132C18.0438 30.9132 16.652 31.9569 16.6563 33.5181C16.6563 34.786 17.5569 35.5148 19.009 35.89L20.013 36.1488C20.9653 36.3903 21.5944 36.6879 21.5987 37.3736C21.5944 38.1283 20.8791 38.6329 19.8364 38.6329C18.8367 38.6329 18.0611 38.1844 17.9964 37.2571H16.4237C16.4883 39.0124 17.7939 40 19.8493 40C21.965 40 23.193 38.9434 23.1974 37.3865C23.193 35.8555 21.9305 35.1569 20.6034 34.842L19.776 34.635C19.0521 34.4625 18.2679 34.1563 18.2765 33.4189C18.2808 32.7547 18.8755 32.2674 19.8751 32.2674C20.8274 32.2674 21.4565 32.7116 21.5384 33.462Z" fill="#333333"/>
<path d="M24.2347 32.3752H26.9623V39.8663H28.548V32.3752H31.2756V31.034H24.2347V32.3752Z" fill="#333333"/>
<path d="M32.6329 39.8663H38.407V38.5251H34.2316V36.1143H38.0752V34.773H34.2316V32.3752H38.3725V31.034H32.6329V39.8663Z" fill="#333333"/>
<path d="M40.0034 31.034V39.8663H41.5374V33.7854H41.6193L44.0582 39.8404H45.2044L47.6432 33.7984H47.7251V39.8663H49.2591V31.034H47.3028L44.683 37.434H44.5796L41.9597 31.034H40.0034Z" fill="#333333"/>
</svg>
