<svg width="24" height="24" viewBox="0 0 24 24" fill="none" xmlns="http://www.w3.org/2000/svg">
<path d="M20.5206 15.21L18.7206 13.4V8.94002C18.7445 7.28384 18.1684 5.67493 17.0987 4.41035C16.0289 3.14578 14.5378 2.31095 12.9006 2.06002C11.9504 1.93488 10.9844 2.01383 10.0672 2.29159C9.14991 2.56935 8.30243 3.03954 7.58129 3.67078C6.86014 4.30202 6.28191 5.07979 5.88517 5.95221C5.48843 6.82463 5.28231 7.77163 5.28056 8.73002V13.4L3.48056 15.21C3.25447 15.4399 3.10114 15.7313 3.03976 16.0478C2.97838 16.3643 3.01166 16.6919 3.13544 16.9897C3.25922 17.2874 3.46801 17.542 3.73571 17.7217C4.00341 17.9014 4.31814 17.9982 4.64056 18H8.00056V18.34C8.04727 19.3552 8.49451 20.3105 9.24429 20.9965C9.99406 21.6826 10.9852 22.0434 12.0006 22C13.0159 22.0434 14.0071 21.6826 14.7568 20.9965C15.5066 20.3105 15.9539 19.3552 16.0006 18.34V18H19.3606C19.683 17.9982 19.9977 17.9014 20.2654 17.7217C20.5331 17.542 20.7419 17.2874 20.8657 16.9897C20.9895 16.6919 21.0227 16.3643 20.9614 16.0478C20.9 15.7313 20.7467 15.4399 20.5206 15.21ZM14.0006 18.34C13.9451 18.821 13.7062 19.2621 13.3336 19.5713C12.9611 19.8805 12.4835 20.0341 12.0006 20C11.5176 20.0341 11.0401 19.8805 10.6675 19.5713C10.2949 19.2621 10.056 18.821 10.0006 18.34V18H14.0006V18.34ZM5.51056 16L6.69056 14.82C6.87773 14.634 7.02622 14.4127 7.12748 14.169C7.22874 13.9253 7.28077 13.6639 7.28056 13.4V8.73002C7.28111 8.05542 7.42594 7.38874 7.70536 6.77473C7.98477 6.16071 8.39228 5.61357 8.90056 5.17002C9.40198 4.7157 9.99614 4.37577 10.6419 4.17375C11.2877 3.97173 11.9696 3.91245 12.6406 4.00002C13.797 4.18779 14.8468 4.78703 15.5965 5.6874C16.3461 6.58776 16.7453 7.72865 16.7206 8.90002V13.4C16.719 13.6632 16.7695 13.9242 16.869 14.1678C16.9685 14.4115 17.1152 14.6331 17.3006 14.82L18.4906 16H5.51056Z" fill="white"/>
<circle cx="19" cy="5" r="4" fill="#FCE489" stroke="#6286ED" stroke-width="2"/>
</svg>
