<svg width="35" height="14" viewBox="0 0 35 14" fill="none" xmlns="http://www.w3.org/2000/svg">
<path d="M0.168413 11H1.70463V7.42045H3.7927C6.15421 7.42045 7.32253 5.99361 7.32253 4.11435C7.32253 2.24006 6.16415 0.818182 3.79767 0.818182H0.168413V11ZM1.70463 6.1179V2.13565H3.63361C5.15492 2.13565 5.77637 2.96094 5.77637 4.11435C5.77637 5.26776 5.15492 6.1179 3.6535 6.1179H1.70463ZM11.1581 11.169C12.4209 11.169 13.1318 10.5277 13.4152 9.95597H13.4749V11H14.9266V5.92898C14.9266 3.70668 13.1766 3.2642 11.9635 3.2642C10.5814 3.2642 9.30868 3.82102 8.81152 5.21307L10.2085 5.53125C10.4273 4.98935 10.9841 4.46733 11.9834 4.46733C12.9429 4.46733 13.4351 4.96946 13.4351 5.83452V5.86932C13.4351 6.41122 12.8783 6.40128 11.5061 6.56037C10.0594 6.7294 8.57786 7.10724 8.57786 8.84233C8.57786 10.3438 9.70641 11.169 11.1581 11.169ZM11.4813 9.97585C10.6411 9.97585 10.0345 9.59801 10.0345 8.86222C10.0345 8.06676 10.7405 7.78338 11.6006 7.66903C12.0828 7.6044 13.2263 7.47514 13.4401 7.26136V8.24574C13.4401 9.15057 12.7192 9.97585 11.4813 9.97585ZM17.5727 13.8636C18.8007 13.8636 19.5763 13.2223 20.0187 12.0192L23.1757 3.37855L21.5699 3.36364L19.6359 9.28977H19.5564L17.6224 3.36364H16.0315L18.8256 11.0994L18.6416 11.6065C18.2638 12.6207 17.7318 12.7053 16.9165 12.4815L16.5585 13.6996C16.7375 13.7791 17.1253 13.8636 17.5727 13.8636ZM24.5764 11H26.0629V6.2919C26.0629 5.26278 26.7838 4.54688 27.629 4.54688C28.4543 4.54688 29.026 5.09375 29.026 5.92401V11H30.5075V6.13281C30.5075 5.21307 31.0693 4.54688 32.0388 4.54688C32.8243 4.54688 33.4706 4.98438 33.4706 6.01847V11H34.9571V5.87926C34.9571 4.13423 33.9827 3.2642 32.6006 3.2642C31.5019 3.2642 30.6766 3.79119 30.3087 4.60653H30.2291C29.896 3.77131 29.195 3.2642 28.1759 3.2642C27.1666 3.2642 26.4159 3.76633 26.0977 4.60653H26.0033V3.36364H24.5764V11Z" fill="#6286ED"/>
</svg>
