<svg width="24" height="24" viewBox="0 0 24 24" fill="none" xmlns="http://www.w3.org/2000/svg">
<path d="M3 1.44C3 0.644623 3.64462 0 4.44 0H15L21 5.03999V22.56C21 23.3554 20.3554 24 19.56 24H4.44C3.64462 24 3 23.3554 3 22.56V1.44Z" fill="#E56862"/>
<path d="M15 0V3.59998C15 4.39537 15.6446 5.03999 16.44 5.03999H21" fill="#E56862"/>
<path d="M7.51587 15.2169H6.95337V16.9423H5.70801V11.7437H7.35086C8.76875 11.7437 9.57872 12.2987 9.57872 13.439C9.57838 14.6623 8.74589 15.2169 7.51587 15.2169ZM7.3659 12.6286H6.95342V14.3165H7.41093C7.97342 14.3165 8.29591 14.0461 8.29591 13.4387C8.29591 12.8915 7.98841 12.6286 7.3659 12.6286Z" fill="white"/>
<path d="M11.5434 16.9423H10.1331V11.7437H11.4534C12.7892 11.7437 14.0638 12.1712 14.0638 14.3173C14.0638 16.4315 12.8409 16.9423 11.5434 16.9423ZM11.6331 12.6436H11.3781V16.0423H11.6331C12.3156 16.0423 12.7731 15.6748 12.7731 14.3165C12.7738 12.9294 12.286 12.6436 11.6331 12.6436Z" fill="white"/>
<path d="M16.2309 12.6286V13.9944H18.0463V14.8869H16.2309V16.9423H14.978V11.7437H18.4063L18.2788 12.6286H16.2309Z" fill="white"/>
</svg>
