<svg width="19" height="12" viewBox="0 0 19 12" fill="none" xmlns="http://www.w3.org/2000/svg">
<path d="M0.227983 11H1.7642V7.42045H3.85227C6.21378 7.42045 7.3821 5.99361 7.3821 4.11435C7.3821 2.24006 6.22372 0.818182 3.85724 0.818182H0.227983V11ZM1.7642 6.1179V2.13565H3.69318C5.21449 2.13565 5.83594 2.96094 5.83594 4.11435C5.83594 5.26776 5.21449 6.1179 3.71307 6.1179H1.7642ZM12.1847 11.1541C14.3374 11.1541 15.7443 9.57812 15.7443 7.21662C15.7443 4.8402 14.3374 3.2642 12.1847 3.2642C10.032 3.2642 8.625 4.8402 8.625 7.21662C8.625 9.57812 10.032 11.1541 12.1847 11.1541ZM12.1896 9.90625C10.7827 9.90625 10.1264 8.67827 10.1264 7.21165C10.1264 5.75 10.7827 4.5071 12.1896 4.5071C13.5866 4.5071 14.2429 5.75 14.2429 7.21165C14.2429 8.67827 13.5866 9.90625 12.1896 9.90625ZM18.8901 0.818182H17.4036V11H18.8901V0.818182Z" fill="#6286ED"/>
</svg>
