<svg width="14" height="11" viewBox="0 0 14 11" fill="none" xmlns="http://www.w3.org/2000/svg">
<path d="M0.454545 11H1.99077V7.42045H4.07884C6.44034 7.42045 7.60867 5.99361 7.60867 4.11435C7.60867 2.24006 6.45028 0.818182 4.08381 0.818182H0.454545V11ZM1.99077 6.1179V2.13565H3.91974C5.44105 2.13565 6.0625 2.96094 6.0625 4.11435C6.0625 5.26776 5.44105 6.1179 3.93963 6.1179H1.99077ZM9.29031 11H10.7768V6.33665C10.7768 5.33736 11.5474 4.61648 12.6014 4.61648C12.9096 4.61648 13.2576 4.67116 13.377 4.70597V3.28409C13.2278 3.2642 12.9345 3.24929 12.7456 3.24929C11.8507 3.24929 11.085 3.75639 10.8066 4.5767H10.7271V3.36364H9.29031V11Z" fill="#6286ED"/>
</svg>
