<svg width="24" height="24" viewBox="0 0 24 24" fill="none" xmlns="http://www.w3.org/2000/svg">
<g clip-path="url(#clip0)">
<path d="M8.31018 4.62354H4.11377C3.7254 4.62354 3.41064 4.93829 3.41064 5.32666C3.41064 5.71503 3.7254 6.02979 4.11377 6.02979H8.31018C8.69836 6.02979 9.01331 5.71503 9.01331 5.32666C9.01331 4.93829 8.69836 4.62354 8.31018 4.62354Z" fill="#ffffff"/>
<path d="M8.31018 7.43628H4.11377C3.7254 7.43628 3.41064 7.75104 3.41064 8.1394C3.41064 8.52777 3.7254 8.84253 4.11377 8.84253H8.31018C8.69836 8.84253 9.01331 8.52777 9.01331 8.1394C9.01331 7.75104 8.69836 7.43628 8.31018 7.43628Z" fill="#ffffff"/>
<path d="M8.31018 10.249H4.11377C3.7254 10.249 3.41064 10.5638 3.41064 10.9521C3.41064 11.3405 3.7254 11.6553 4.11377 11.6553H8.31018C8.69836 11.6553 9.01331 11.3405 9.01331 10.9521C9.01331 10.5638 8.69836 10.249 8.31018 10.249Z" fill="#ffffff"/>
<path d="M8.31018 13.0615H4.11377C3.7254 13.0615 3.41064 13.3763 3.41064 13.7646C3.41064 14.153 3.7254 14.4678 4.11377 14.4678H8.31018C8.69836 14.4678 9.01331 14.153 9.01331 13.7646C9.01331 13.3763 8.69836 13.0615 8.31018 13.0615Z" fill="#ffffff"/>
<path d="M8.31018 15.9214H4.11377C3.7254 15.9214 3.41064 16.2363 3.41064 16.6245C3.41064 17.0129 3.7254 17.3276 4.11377 17.3276H8.31018C8.69836 17.3276 9.01331 17.0129 9.01331 16.6245C9.01331 16.2363 8.69836 15.9214 8.31018 15.9214Z" fill="#ffffff"/>
<path d="M10.6719 6.02979H14.8683C15.2567 6.02979 15.5714 5.71503 15.5714 5.32666C15.5714 4.93829 15.2567 4.62354 14.8683 4.62354H10.6719C10.2837 4.62354 9.96875 4.93829 9.96875 5.32666C9.96875 5.71503 10.2837 6.02979 10.6719 6.02979Z" fill="#ffffff"/>
<path d="M10.6719 8.84253H14.8683C15.2567 8.84253 15.5714 8.52777 15.5714 8.1394C15.5714 7.75104 15.2567 7.43628 14.8683 7.43628H10.6719C10.2837 7.43628 9.96875 7.75104 9.96875 8.1394C9.96875 8.52777 10.2837 8.84253 10.6719 8.84253Z" fill="#ffffff"/>
<path d="M13.3961 10.9521C13.3961 10.5638 13.0814 10.249 12.693 10.249H10.6719C10.2837 10.249 9.96875 10.5638 9.96875 10.9521C9.96875 11.3405 10.2837 11.6553 10.6719 11.6553H12.693C13.0814 11.6553 13.3961 11.3405 13.3961 10.9521Z" fill="#ffffff"/>
<path d="M20.056 16.2184C19.7531 15.9754 19.3107 16.024 19.0676 16.3268L17.2566 18.5845L16.1355 17.7723C15.8211 17.5443 15.3813 17.6146 15.1535 17.929C14.9257 18.2436 14.996 18.6832 15.3104 18.911L16.9736 20.116C17.0981 20.2061 17.2424 20.2499 17.3857 20.2499C17.5921 20.2499 17.7961 20.1592 17.9345 19.9866L20.1645 17.2068C20.4075 16.904 20.359 16.4614 20.056 16.2184Z" fill="#ffffff"/>
<path d="M21.8337 14.0598C20.9178 13.1277 19.741 12.5403 18.4658 12.3673V2.83173C18.4658 1.27039 17.1954 0 15.6341 0H3.34753C1.78601 0 0.515625 1.27039 0.515625 2.83173V19.1195C0.515625 20.681 1.78601 21.9514 3.34735 21.9514H13.2294C14.3414 23.2577 15.9402 24 17.67 24C20.89 24 23.5095 21.3787 23.5095 18.1566C23.5095 16.6141 22.9144 15.1591 21.8337 14.0598ZM1.92188 19.1195V2.83173C1.92188 2.04584 2.56146 1.40625 3.34753 1.40625H15.6341C16.4202 1.40625 17.0596 2.04584 17.0596 2.83173V12.345C14.1255 12.6513 11.8306 15.1406 11.8306 18.1566C11.8306 18.9924 12.0049 19.8007 12.3393 20.545H3.34753C2.56146 20.545 1.92188 19.9056 1.92188 19.1195ZM17.67 22.5938C16.2658 22.5938 14.9749 21.949 14.1281 20.8251C13.545 20.0511 13.2367 19.1285 13.2367 18.1566C13.2367 15.7099 15.2256 13.7194 17.67 13.7194C17.6931 13.7194 17.7164 13.7197 17.7394 13.7201L17.7502 13.7203C18.9172 13.741 20.0112 14.2115 20.8308 15.0454C21.6513 15.8802 22.1032 16.9852 22.1032 18.1566C22.1032 20.6032 20.1145 22.5938 17.67 22.5938Z" fill="#ffffff"/>
</g>
<defs>
<clipPath id="clip0">
<rect width="24" height="24" fill="white"/>
</clipPath>
</defs>
</svg>
