<svg style="transform: rotateZ(180deg);" width="24" height="24" viewBox="0 0 24 24" fill="none" xmlns="http://www.w3.org/2000/svg">
<path d="M7.00007 10.4999C6.99931 10.3683 7.02453 10.2379 7.0743 10.116C7.12406 9.9942 7.19739 9.88338 7.29007 9.78994C7.38303 9.69621 7.49363 9.62182 7.61549 9.57105C7.73735 9.52028 7.86806 9.49414 8.00007 9.49414C8.13208 9.49414 8.26279 9.52028 8.38465 9.57105C8.50651 9.62182 8.61711 9.69621 8.71007 9.78994L12.0001 13.0999L15.3101 9.91994C15.4974 9.73369 15.7509 9.62915 16.0151 9.62915C16.2793 9.62915 16.5327 9.73369 16.7201 9.91994C16.8138 10.0129 16.8882 10.1235 16.939 10.2454C16.9897 10.3672 17.0159 10.4979 17.0159 10.6299C17.0159 10.762 16.9897 10.8927 16.939 11.0145C16.8882 11.1364 16.8138 11.247 16.7201 11.3399L12.7201 15.1999C12.5331 15.3832 12.2818 15.4858 12.0201 15.4858C11.7583 15.4858 11.507 15.3832 11.3201 15.1999L7.32007 11.1999C7.22314 11.1102 7.14495 11.0021 7.09003 10.882C7.0351 10.7618 7.00453 10.632 7.00007 10.4999Z" fill="#6286ED"/>
</svg>
