<svg width="24" height="24" viewBox="0 0 24 24" fill="none" xmlns="http://www.w3.org/2000/svg">
<path fill-rule="evenodd" clip-rule="evenodd" d="M7.70711 1.29289C8.09763 1.68342 8.09763 2.31658 7.70711 2.70711L5.41421 5H17C19.7614 5 22 7.23858 22 10V12C22 12.5523 21.5523 13 21 13C20.4477 13 20 12.5523 20 12V10C20 8.34315 18.6569 7 17 7H5.41421L7.70711 9.2929C8.09763 9.68342 8.09763 10.3166 7.70711 10.7071C7.31658 11.0976 6.68342 11.0976 6.29289 10.7071L2.29289 6.70711C1.90237 6.31659 1.90237 5.68342 2.29289 5.2929L6.29289 1.29289C6.68342 0.902369 7.31658 0.902369 7.70711 1.29289ZM4 12C4 11.4477 3.55229 11 3 11C2.44772 11 2 11.4477 2 12V14C2 16.7614 4.23858 19 7 19H18.5858L16.2929 21.2929C15.9024 21.6834 15.9024 22.3166 16.2929 22.7071C16.6834 23.0976 17.3166 23.0976 17.7071 22.7071L21.7071 18.7071C22.0976 18.3166 22.0976 17.6834 21.7071 17.2929L17.7071 13.2929C17.3166 12.9024 16.6834 12.9024 16.2929 13.2929C15.9024 13.6834 15.9024 14.3166 16.2929 14.7071L18.5858 17H7C5.34315 17 4 15.6569 4 14V12Z" fill="#8F92A1"/>
</svg>
