<svg width="24" height="24" viewBox="0 0 24 24" fill="none" xmlns="http://www.w3.org/2000/svg">
<path d="M2.89615 3.69233C2.89615 3.21014 3.28704 2.81925 3.76923 2.81925H7.46154C7.94373 2.81925 8.33462 3.21014 8.33462 3.69233V7.38463C8.33462 7.86682 7.94373 8.25771 7.46154 8.25771H3.76923C3.28704 8.25771 2.89615 7.86682 2.89615 7.38463V3.69233ZM7.46154 0.873096H3.76923C2.21221 0.873096 0.95 2.13531 0.95 3.69233V7.38463C0.95 8.94165 2.21221 10.2039 3.76923 10.2039H7.46154C9.01856 10.2039 10.2808 8.94165 10.2808 7.38463V3.69233C10.2808 2.13531 9.01856 0.873096 7.46154 0.873096Z" fill="#8F92A1" stroke="#8F92A1" stroke-width="0.1"/>
<path d="M15.6654 16.6152C15.6654 16.133 16.0563 15.7421 16.5385 15.7421H20.2308C20.713 15.7421 21.1039 16.133 21.1039 16.6152V20.3075C21.1039 20.7897 20.713 21.1806 20.2308 21.1806H16.5385C16.0563 21.1806 15.6654 20.7897 15.6654 20.3075V16.6152ZM20.2308 13.7959H16.5385C14.9815 13.7959 13.7193 15.0582 13.7193 16.6152V20.3075C13.7193 21.8645 14.9815 23.1267 16.5385 23.1267H20.2308C21.7878 23.1267 23.05 21.8645 23.05 20.3075V16.6152C23.05 15.0582 21.7878 13.7959 20.2308 13.7959Z" fill="#8F92A1" stroke="#8F92A1" stroke-width="0.1"/>
<path d="M11.95 5.53831C11.95 6.07573 12.3857 6.51139 12.9231 6.51139H22.1538C22.6913 6.51139 23.1269 6.07573 23.1269 5.53831C23.1269 5.0009 22.6913 4.56523 22.1538 4.56523H12.9231C12.3857 4.56523 11.95 5.0009 11.95 5.53831Z" fill="#8F92A1" stroke="#8F92A1" stroke-width="0.1"/>
<path d="M17.7727 2.3079L21.0004 5.53562L17.7727 8.76335C17.3928 9.1433 17.3928 9.75934 17.7727 10.1393C18.1527 10.5192 18.7687 10.5192 19.1487 10.1393L23.0644 6.2236C23.4443 5.84364 23.4443 5.22761 23.0644 4.84765L19.1487 0.931958C18.7687 0.552002 18.1527 0.552002 17.7727 0.931958C17.3928 1.31191 17.3928 1.92794 17.7727 2.3079Z" fill="#8F92A1" stroke="#8F92A1" stroke-width="0.1"/>
<path d="M12.05 18.4614C12.05 18.9988 11.6143 19.4345 11.0769 19.4345H1.84615C1.30874 19.4345 0.873076 18.9988 0.873076 18.4614C0.873076 17.924 1.30874 17.4883 1.84615 17.4883H11.0769C11.6143 17.4883 12.05 17.924 12.05 18.4614Z" fill="#8F92A1" stroke="#8F92A1" stroke-width="0.1"/>
<path d="M6.22545 15.231L2.99773 18.4587L6.22545 21.6864C6.6054 22.0664 6.6054 22.6824 6.22545 23.0624C5.84549 23.4423 5.22946 23.4423 4.84951 23.0624L0.933814 19.1467C0.553858 18.7667 0.553858 18.1507 0.933814 17.7707L4.84951 13.8551C5.22946 13.4751 5.84549 13.4751 6.22545 13.8551C6.6054 14.235 6.6054 14.851 6.22545 15.231Z" fill="#8F92A1" stroke="#8F92A1" stroke-width="0.1"/>
</svg>
